<svg width="32" height="32" viewBox="0 0 32 32" xmlns="http://www.w3.org/2000/svg">
  <defs>
    <!-- Strong gradient for the brain icon -->
    <linearGradient id="brainGradient" x1="0%" y1="0%" x2="100%" y2="100%">
      <stop offset="0%" style="stop-color:#FF3B30;stop-opacity:1" />
      <stop offset="30%" style="stop-color:#FF9500;stop-opacity:1" />
      <stop offset="70%" style="stop-color:#FFCC00;stop-opacity:1" />
      <stop offset="100%" style="stop-color:#34C759;stop-opacity:1" />
    </linearGradient>

    <!-- Background gradient -->
    <radialGradient id="bgGradient" cx="50%" cy="50%" r="50%">
      <stop offset="0%" style="stop-color:#1D1D1F;stop-opacity:1" />
      <stop offset="100%" style="stop-color:#000000;stop-opacity:1" />
    </radialGradient>

    <!-- Strong drop shadow -->
    <filter id="dropShadow" x="-30%" y="-30%" width="160%" height="160%">
      <feDropShadow dx="2" dy="2" stdDeviation="2" flood-color="rgba(0,0,0,0.7)"/>
    </filter>

    <!-- Glow effect -->
    <filter id="glow" x="-50%" y="-50%" width="200%" height="200%">
      <feGaussianBlur stdDeviation="1" result="coloredBlur"/>
      <feMerge>
        <feMergeNode in="coloredBlur"/>
        <feMergeNode in="SourceGraphic"/>
      </feMerge>
    </filter>
  </defs>

  <!-- Dark background circle for contrast -->
  <circle cx="16" cy="16" r="15" fill="url(#bgGradient)" stroke="url(#brainGradient)" stroke-width="2"/>

  <!-- Stylized brain icon - larger and more prominent -->
  <g transform="translate(16,16)" filter="url(#dropShadow)">
    <!-- Left hemisphere -->
    <path d="M-7,-5 C-9,-7 -10,-4 -9,-1.5 C-10,1.5 -8,5 -4.5,4 C-3.5,5 -1.5,4 -1.5,1.5 C-0.5,0.5 -1.5,-2.5 -3.5,-3.5 C-4.5,-4.5 -6,-5 -7,-5 Z"
          fill="url(#brainGradient)" filter="url(#glow)"/>

    <!-- Right hemisphere -->
    <path d="M7,-5 C9,-7 10,-4 9,-1.5 C10,1.5 8,5 4.5,4 C3.5,5 1.5,4 1.5,1.5 C0.5,0.5 1.5,-2.5 3.5,-3.5 C4.5,-4.5 6,-5 7,-5 Z"
          fill="url(#brainGradient)" filter="url(#glow)"/>

    <!-- Brain stem -->
    <ellipse cx="0" cy="2.5" rx="2" ry="4" fill="url(#brainGradient)" filter="url(#glow)"/>

    <!-- Neural connections - more prominent -->
    <path d="M-5,-1.5 Q0,-2.5 5,-1.5" stroke="url(#brainGradient)" stroke-width="1.5" fill="none" filter="url(#glow)"/>
    <path d="M-4,1 Q0,-0.5 4,1" stroke="url(#brainGradient)" stroke-width="1.5" fill="none" filter="url(#glow)"/>
    <path d="M-3,3.5 Q0,2.5 3,3.5" stroke="url(#brainGradient)" stroke-width="1.5" fill="none" filter="url(#glow)"/>

    <!-- Central highlight -->
    <circle cx="0" cy="-1" r="1.5" fill="rgba(255,255,255,0.4)" filter="url(#glow)"/>
  </g>

  <!-- Animated energy particles -->
  <circle cx="6" cy="8" r="0.8" fill="#FF3B30" opacity="0.9">
    <animate attributeName="opacity" values="0.5;1;0.5" dur="1.2s" repeatCount="indefinite"/>
  </circle>
  <circle cx="26" cy="10" r="0.6" fill="#FFCC00" opacity="0.8">
    <animate attributeName="opacity" values="0.4;0.9;0.4" dur="1.5s" repeatCount="indefinite"/>
  </circle>
  <circle cx="8" cy="24" r="0.6" fill="#34C759" opacity="0.8">
    <animate attributeName="opacity" values="0.4;0.9;0.4" dur="1.8s" repeatCount="indefinite"/>
  </circle>
  <circle cx="24" cy="24" r="0.8" fill="#FF9500" opacity="0.9">
    <animate attributeName="opacity" values="0.5;1;0.5" dur="1.3s" repeatCount="indefinite"/>
  </circle>
</svg>
