<svg width="60" height="60" viewBox="0 0 60 60" xmlns="http://www.w3.org/2000/svg">
  <defs>
    <!-- Strong gradient for the brain icon -->
    <linearGradient id="brainGradient" x1="0%" y1="0%" x2="100%" y2="100%">
      <stop offset="0%" style="stop-color:#FF3B30;stop-opacity:1" />
      <stop offset="30%" style="stop-color:#FF9500;stop-opacity:1" />
      <stop offset="70%" style="stop-color:#FFCC00;stop-opacity:1" />
      <stop offset="100%" style="stop-color:#34C759;stop-opacity:1" />
    </linearGradient>

    <!-- Background gradient -->
    <radialGradient id="bgGradient" cx="50%" cy="50%" r="50%">
      <stop offset="0%" style="stop-color:#1D1D1F;stop-opacity:1" />
      <stop offset="100%" style="stop-color:#000000;stop-opacity:1" />
    </radialGradient>

    <!-- Strong drop shadow -->
    <filter id="dropShadow" x="-30%" y="-30%" width="160%" height="160%">
      <feDropShadow dx="3" dy="3" stdDeviation="4" flood-color="rgba(0,0,0,0.6)"/>
    </filter>

    <!-- Glow effect -->
    <filter id="glow" x="-50%" y="-50%" width="200%" height="200%">
      <feGaussianBlur stdDeviation="2" result="coloredBlur"/>
      <feMerge>
        <feMergeNode in="coloredBlur"/>
        <feMergeNode in="SourceGraphic"/>
      </feMerge>
    </filter>
  </defs>

  <!-- Dark background circle for contrast -->
  <circle cx="30" cy="30" r="28" fill="url(#bgGradient)" stroke="url(#brainGradient)" stroke-width="3"/>

  <!-- Stylized brain icon - larger and more prominent -->
  <g transform="translate(30,30)" filter="url(#dropShadow)">
    <!-- Left hemisphere -->
    <path d="M-14,-10 C-18,-14 -20,-8 -18,-3 C-20,3 -16,10 -9,8 C-7,10 -3,8 -3,3 C-1,1 -3,-5 -7,-7 C-9,-9 -12,-10 -14,-10 Z"
          fill="url(#brainGradient)" filter="url(#glow)"/>

    <!-- Right hemisphere -->
    <path d="M14,-10 C18,-14 20,-8 18,-3 C20,3 16,10 9,8 C7,10 3,8 3,3 C1,1 3,-5 7,-7 C9,-9 12,-10 14,-10 Z"
          fill="url(#brainGradient)" filter="url(#glow)"/>

    <!-- Brain stem -->
    <ellipse cx="0" cy="5" rx="4" ry="8" fill="url(#brainGradient)" filter="url(#glow)"/>

    <!-- Neural connections - more prominent -->
    <path d="M-10,-3 Q0,-5 10,-3" stroke="url(#brainGradient)" stroke-width="2.5" fill="none" filter="url(#glow)"/>
    <path d="M-8,2 Q0,0 8,2" stroke="url(#brainGradient)" stroke-width="2.5" fill="none" filter="url(#glow)"/>
    <path d="M-6,7 Q0,5 6,7" stroke="url(#brainGradient)" stroke-width="2.5" fill="none" filter="url(#glow)"/>

    <!-- Central highlight -->
    <circle cx="0" cy="-2" r="3" fill="rgba(255,255,255,0.3)" filter="url(#glow)"/>
  </g>

  <!-- Animated energy particles -->
  <circle cx="10" cy="15" r="1.5" fill="#FF3B30" opacity="0.8">
    <animate attributeName="opacity" values="0.4;1;0.4" dur="1.5s" repeatCount="indefinite"/>
    <animate attributeName="r" values="1;2;1" dur="1.5s" repeatCount="indefinite"/>
  </circle>
  <circle cx="50" cy="20" r="1" fill="#FFCC00" opacity="0.7">
    <animate attributeName="opacity" values="0.3;0.9;0.3" dur="2s" repeatCount="indefinite"/>
    <animate attributeName="r" values="0.5;1.5;0.5" dur="2s" repeatCount="indefinite"/>
  </circle>
  <circle cx="15" cy="45" r="1" fill="#34C759" opacity="0.7">
    <animate attributeName="opacity" values="0.3;0.9;0.3" dur="2.3s" repeatCount="indefinite"/>
    <animate attributeName="r" values="0.5;1.5;0.5" dur="2.3s" repeatCount="indefinite"/>
  </circle>
  <circle cx="45" cy="45" r="1.5" fill="#FF9500" opacity="0.8">
    <animate attributeName="opacity" values="0.4;1;0.4" dur="1.8s" repeatCount="indefinite"/>
    <animate attributeName="r" values="1;2;1" dur="1.8s" repeatCount="indefinite"/>
  </circle>
</svg>
